<?xml version="1.0" encoding="utf-8"?>
<!-- Generator: Adobe Illustrator 24.3.0, SVG Export Plug-In . SVG Version: 6.00 Build 0)  -->
<svg version="1.1" id="Layer_1" xmlns="http://www.w3.org/2000/svg" xmlns:xlink="http://www.w3.org/1999/xlink" x="0px" y="0px"
	 viewBox="0 0 576 512" style="enable-background:new 0 0 576 512;" xml:space="preserve">
<style type="text/css">
	.st0{fill:#128C7E;}
</style>
<path class="st0" d="M576,136c0,22.1-17.9,40-40,40c-0.2,0-0.5-0.1-0.7-0.1l-50.5,277.9c-2.8,15.1-16,26.2-31.5,26.2H122.7
	c-15.5,0-28.7-11.1-31.5-26.3L40.7,175.9c-0.2,0-0.5,0.1-1.6,0.1c-22.1,0-40-17.9-40-40s18.8-40,40-40s40,17.9,40,40
	c0,9-3.5,16.9-8.5,23.6l89.6,71.7c15.9,12.7,39.5,7.5,48.6-10.7l57.6-115.2c-11.3-7.1-19.3-19.1-19.3-33.4c0-22.1,18.8-40,40.9-40
	s39.1,17.9,39.1,40c0,14.3-8,26.3-19.3,33.4l57.6,115.2c9.1,18.2,32.7,23.4,48.6,10.7l89.6-71.7c-4.1-6.7-7.6-15.5-7.6-23.6
	c0-22.1,17.9-40,40-40S576,113.9,576,136z"/>
</svg>
